<?xml version="1.0" standalone="no"?>
<!DOCTYPE svg PUBLIC "-//W3C//DTD SVG 20010904//EN"
 "http://www.w3.org/TR/2001/REC-SVG-20010904/DTD/svg10.dtd">
<svg version="1.0" xmlns="http://www.w3.org/2000/svg"
 width="595.000000pt" height="228.000000pt" viewBox="0 0 595.000000 228.000000"
 preserveAspectRatio="xMidYMid meet">
<metadata>
Created by potrace 1.16, written by Peter Selinger 2001-2019
</metadata>
<g transform="translate(0.000000,228.000000) scale(0.100000,-0.100000)"
fill="#000000" stroke="none">
<path d="M3612 1643 c-5 -16 -67 -183 -137 -373 -70 -190 -142 -387 -161 -437
l-33 -93 23 0 c21 0 28 13 66 118 23 64 69 190 102 280 l60 162 112 0 111 0
50 -140 c44 -124 52 -140 72 -140 13 0 23 4 23 9 0 6 -20 65 -45 132 -25 67
-45 126 -45 131 0 4 61 8 135 8 128 0 135 1 135 20 0 18 -8 20 -146 22 l-147
3 -59 163 c-54 145 -63 162 -83 162 -16 0 -26 -8 -33 -27z m81 -168 c19 -55
38 -108 42 -117 7 -16 -1 -18 -89 -18 -53 0 -96 2 -96 4 0 4 71 204 86 240 9
24 13 17 57 -109z"/>
<path d="M670 1326 l0 -326 152 0 c131 0 157 3 193 20 61 29 88 84 83 164 -4
67 -23 103 -71 131 l-29 17 31 19 c46 28 64 71 59 141 -5 66 -26 102 -79 133
-29 17 -56 20 -186 23 l-153 4 0 -326z m314 260 c40 -25 59 -63 58 -111 -1
-93 -56 -125 -217 -125 l-105 0 0 131 0 132 120 -5 c88 -4 126 -9 144 -22z
m-5 -294 c51 -25 74 -63 74 -117 0 -54 -23 -92 -74 -117 -26 -14 -59 -18 -146
-18 l-113 0 0 135 0 135 113 0 c87 0 120 -4 146 -18z"/>
<path d="M1380 1326 l0 -326 25 0 25 0 0 150 0 150 88 0 87 0 76 -148 c66
-127 80 -147 103 -150 14 -2 26 0 26 5 0 4 -33 71 -74 147 l-73 139 51 26 c63
33 88 66 94 130 7 74 -19 135 -71 169 -39 26 -46 27 -199 30 l-158 4 0 -326z
m317 261 c63 -33 85 -136 41 -192 -34 -44 -75 -55 -198 -55 l-110 0 0 136 0
136 118 -4 c84 -3 126 -9 149 -21z"/>
<path d="M2072 1388 c3 -261 3 -263 28 -298 34 -48 58 -67 109 -85 117 -40
241 11 285 117 13 30 16 84 16 283 l0 245 -25 0 -25 0 0 -247 c0 -233 -1 -250
-21 -282 -29 -48 -57 -68 -109 -80 -84 -18 -161 16 -196 86 -17 33 -19 68 -22
281 -3 234 -4 242 -23 242 -20 0 -20 -6 -17 -262z"/>
<path d="M2892 1624 c-55 -27 -87 -64 -103 -117 -5 -17 -10 -102 -10 -188 -1
-202 18 -251 113 -300 132 -68 280 -4 323 139 5 19 3 22 -18 22 -18 0 -27 -7
-31 -24 -7 -29 -50 -82 -79 -98 -39 -20 -91 -27 -130 -17 -48 13 -103 61 -116
102 -30 98 -20 347 16 396 30 40 92 71 143 71 67 0 119 -34 150 -97 19 -39 31
-52 48 -52 27 -1 27 12 3 64 -53 115 -189 159 -309 99z"/>
<path d="M4220 1325 l0 -325 25 0 24 0 3 148 3 147 89 0 90 0 75 -147 c70
-136 78 -148 104 -148 15 0 27 2 27 4 0 3 -33 69 -74 147 l-74 142 49 23 c143
67 124 281 -28 323 -21 6 -100 11 -175 11 l-138 0 0 -325z m328 261 c59 -31
80 -122 42 -184 -30 -50 -71 -62 -205 -62 l-115 0 0 128 c0 71 3 132 8 136 4
5 59 6 122 4 84 -3 124 -9 148 -22z"/>
<path d="M4850 1630 c0 -19 7 -20 95 -20 l95 0 0 -305 0 -305 25 0 25 0 0 305
0 305 100 0 c93 0 100 1 100 20 0 19 -7 20 -220 20 -213 0 -220 -1 -220 -20z"/>
<path d="M850 882 c-63 -19 -48 -132 18 -132 38 0 58 32 52 85 -4 36 -36 58
-70 47z m48 -24 c16 -16 15 -60 -1 -82 -31 -42 -89 14 -68 67 11 29 47 37 69
15z"/>
<path d="M1288 883 c-32 -8 -31 -37 3 -65 38 -32 34 -63 -6 -56 -13 3 -22 1
-19 -3 10 -17 53 -9 64 11 8 15 6 24 -10 40 -11 11 -24 20 -30 20 -5 0 -10 9
-10 19 0 14 8 21 28 23 17 2 21 5 12 9 -8 3 -22 4 -32 2z"/>
<path d="M2208 883 c-32 -8 -31 -37 3 -65 38 -32 34 -63 -6 -56 -13 3 -22 1
-19 -3 10 -17 53 -9 64 11 8 15 6 24 -10 40 -11 11 -24 20 -30 20 -5 0 -10 9
-10 19 0 14 8 21 28 23 17 2 21 5 12 9 -8 3 -22 4 -32 2z"/>
<path d="M3058 883 c-32 -8 -31 -37 3 -65 38 -32 34 -63 -6 -56 -13 3 -22 1
-19 -3 10 -17 53 -9 64 11 8 15 6 24 -10 40 -11 11 -24 20 -30 20 -5 0 -10 9
-10 19 0 14 8 21 28 23 17 2 21 5 12 9 -8 3 -22 4 -32 2z"/>
<path d="M710 825 c0 -48 -3 -57 -22 -65 l-23 -9 22 0 c12 -1 27 8 33 18 13
25 13 111 0 111 -5 0 -10 -25 -10 -55z"/>
<path d="M1013 815 c0 -38 2 -53 4 -32 2 20 2 52 0 70 -2 17 -4 1 -4 -38z"/>
<path d="M1120 815 l0 -65 38 2 c36 1 36 1 5 5 -27 4 -33 9 -33 29 0 19 5 24
25 24 14 0 25 5 25 10 0 6 -11 10 -25 10 -37 0 -35 37 3 43 25 4 25 4 -5 6
l-33 1 0 -65z"/>
<path d="M1541 818 c-11 -34 -19 -63 -17 -65 2 -3 7 5 11 16 9 30 61 29 68 -1
4 -12 9 -20 12 -17 7 8 -35 129 -45 129 -4 0 -18 -28 -29 -62z m39 28 c0 -8 3
-21 6 -30 4 -12 0 -16 -15 -16 -23 0 -24 3 -15 38 7 24 24 30 24 8z"/>
<path d="M1712 813 c0 -38 3 -53 5 -35 2 17 10 32 17 32 18 0 36 -21 36 -42 0
-10 4 -18 9 -18 10 0 2 48 -10 56 -5 3 -3 13 3 23 17 28 3 51 -32 51 l-30 0 2
-67z m53 32 c0 -13 -8 -21 -22 -23 -19 -3 -23 1 -23 23 0 22 4 26 23 23 14 -2
22 -10 22 -23z"/>
<path d="M1868 873 c20 -4 22 -10 22 -64 0 -33 4 -59 10 -59 6 0 10 26 10 59
0 54 2 60 23 64 12 2 -3 4 -33 4 -30 0 -45 -2 -32 -4z"/>
<path d="M2030 815 l0 -65 38 2 c36 1 36 1 5 5 -27 4 -33 9 -33 29 0 19 5 24
25 24 14 0 25 5 25 10 0 6 -11 10 -25 10 -37 0 -35 37 3 43 25 4 25 4 -5 6
l-33 1 0 -65z"/>
<path d="M2351 818 c-11 -34 -19 -63 -17 -65 2 -3 7 5 11 16 9 30 61 29 68 -1
4 -12 9 -20 12 -17 7 8 -35 129 -45 129 -4 0 -18 -28 -29 -62z m39 28 c0 -8 3
-21 6 -30 4 -12 0 -16 -15 -16 -23 0 -24 3 -15 38 7 24 24 30 24 8z"/>
<path d="M2521 813 c1 -78 6 -74 12 10 2 31 0 57 -5 57 -4 0 -8 -30 -7 -67z"/>
<path d="M2600 828 l-1 -53 -26 43 c-14 24 -28 41 -30 38 -6 -6 50 -106 60
-106 4 0 7 29 7 65 0 36 -2 65 -5 65 -3 0 -5 -24 -5 -52z"/>
<path d="M2721 818 c-11 -34 -19 -63 -17 -65 2 -3 7 5 11 16 9 30 61 29 68 -1
4 -12 9 -20 12 -17 7 8 -35 129 -45 129 -4 0 -18 -28 -29 -62z m39 28 c0 -8 3
-21 6 -30 4 -12 0 -16 -15 -16 -23 0 -24 3 -15 38 7 24 24 30 24 8z"/>
<path d="M2882 818 l-2 -68 38 2 c36 1 36 1 5 5 -32 4 -32 5 -36 66 l-3 62 -2
-67z"/>
</g>
</svg>
